<svg width="801" height="78" viewBox="0 0 801 78" fill="none" xmlns="http://www.w3.org/2000/svg">
<path fill-rule="evenodd" clip-rule="evenodd" d="M6.9917 0C2.59692 0 0 1.94191 0 5.2C0 8.45809 0 27.3 2.59692 41.6C5.19383 55.9 20.7753 78 46.7445 78C63.7749 78 76.3379 68.4956 83.7012 57.9195C84.9692 58.6335 86.3246 59.2417 87.7631 59.7289C101.062 64.2337 114.996 56.2111 119.455 43.0161C123.914 29.8211 117.708 14.9764 104.408 10.4716C100.736 9.22792 97.0163 8.93909 93.4606 9.45036C93.489 7.41295 93.489 5.92289 93.489 5.2C93.489 1.94191 90.8921 0 86.4973 0H6.9917ZM89.651 46.3177C90.2053 44.6824 90.6199 43.0984 90.8921 41.6C91.9667 35.6827 92.5966 28.9877 92.9659 22.941C95.3464 22.0759 97.9096 21.9942 100.247 22.786C105.968 24.7238 109.591 31.6419 107.155 38.8499C104.72 46.0579 97.6453 49.3524 91.9244 47.4146C91.1216 47.1427 90.3602 46.7727 89.651 46.3177Z" fill="#71230B"/>
<path fill-rule="evenodd" clip-rule="evenodd" d="M606.986 28.4583H625.617C625.879 28.8523 626.109 29.4105 626.307 30.1328C626.569 30.7895 626.701 31.5776 626.701 32.4969C626.701 35.2551 625.452 36.6341 622.955 36.6341H607.282V71.5047C606.822 71.7017 606.165 71.8659 605.311 71.9972C604.522 72.1942 603.635 72.2927 602.649 72.2927C600.743 72.2927 599.331 71.9315 598.411 71.2092C597.491 70.4868 597.031 69.2719 597.031 67.5645V22.6465C597.031 19.6257 597.458 17.0317 598.312 14.8646C599.232 12.6975 600.514 10.9245 602.156 9.5454C603.799 8.16634 605.771 7.14846 608.071 6.49176C610.436 5.83506 613.032 5.50671 615.858 5.50671C619.932 5.50671 623.054 6.03207 625.222 7.08279C627.391 8.1335 628.475 9.61107 628.475 11.5155C628.475 12.4349 628.278 13.2557 627.884 13.9781C627.555 14.6348 627.128 15.2258 626.602 15.7512C625.354 15.2258 623.908 14.7661 622.265 14.3721C620.622 13.9781 618.946 13.7811 617.238 13.7811C613.558 13.7811 610.929 14.5035 609.352 15.9482C607.775 17.3929 606.986 19.757 606.986 23.0405V28.4583ZM237.467 35.0579C239.439 36.6997 240.425 39.3265 240.425 42.9383V67.5644C240.425 69.2718 240.852 70.4867 241.706 71.2091C242.626 71.9314 244.072 72.2926 246.043 72.2926C246.963 72.2926 247.85 72.1941 248.705 71.9971C249.559 71.8658 250.216 71.7016 250.676 71.5046V42.5443C250.676 36.3713 248.902 31.7745 245.353 28.7537C241.87 25.7328 237.27 24.2224 231.553 24.2224C229.056 24.2224 226.789 24.5508 224.752 25.2075C222.78 25.7985 221.039 26.488 219.527 27.2761V11.7124C219.527 10.005 219.067 8.79008 218.147 8.06772C217.293 7.34535 215.913 6.98417 214.007 6.98417C213.022 6.98417 212.102 7.08267 211.247 7.27968C210.393 7.47669 209.736 7.64086 209.276 7.7722V67.5644C209.276 69.2718 209.736 70.4867 210.656 71.2091C211.576 71.9314 212.989 72.2926 214.894 72.2926C215.88 72.2926 216.767 72.1941 217.556 71.9971C218.41 71.8658 219.067 71.7016 219.527 71.5046V36.043C220.842 35.0579 222.353 34.2371 224.062 33.5804C225.836 32.858 227.775 32.4968 229.877 32.4968C233.032 32.4968 235.562 33.3505 237.467 35.0579ZM187.861 61.0632C185.889 62.7706 182.834 63.6243 178.694 63.6243C174.882 63.6243 171.596 62.9677 168.836 61.6543C166.142 60.3409 164.006 58.9618 162.429 57.5171C161.378 57.9768 160.458 58.6663 159.669 59.5857C158.881 60.505 158.486 61.6214 158.486 62.9348C158.486 64.1825 158.979 65.3646 159.965 66.481C160.951 67.5974 162.331 68.5824 164.105 69.4361C165.945 70.2898 168.114 70.9793 170.611 71.5047C173.108 72.0301 175.868 72.2927 178.891 72.2927C182.505 72.2927 185.725 71.8659 188.551 71.0122C191.442 70.1585 193.841 68.9436 195.747 67.3675C197.652 65.7914 199.098 63.9199 200.084 61.7528C201.135 59.52 201.661 57.0902 201.661 54.4634C201.661 49.5382 200.117 45.6637 197.028 42.8399C194.005 39.9504 189.734 37.6848 184.214 36.0431L178.496 34.3685C175.342 33.4492 173.075 32.3984 171.695 31.2164C170.315 29.9687 169.625 28.3598 169.625 26.3897C169.625 23.9599 170.611 22.0226 172.582 20.5779C174.554 19.1332 177.346 18.4108 180.961 18.4108C184.181 18.4108 187.105 18.8705 189.734 19.7899C192.428 20.6436 194.597 21.6943 196.239 22.942C197.028 22.4167 197.685 21.76 198.211 20.9719C198.802 20.1182 199.098 19.1332 199.098 18.0168C199.098 16.8347 198.605 15.7512 197.619 14.7661C196.699 13.7154 195.385 12.8289 193.677 12.1065C192.034 11.3185 190.062 10.7275 187.762 10.3334C185.462 9.87376 182.965 9.64392 180.271 9.64392C173.699 9.64392 168.475 11.1543 164.598 14.1751C160.786 17.1303 158.881 21.2018 158.881 26.3897C158.881 28.6881 159.209 30.7239 159.866 32.4969C160.589 34.2044 161.608 35.7148 162.922 37.0281C164.236 38.2759 165.814 39.3923 167.654 40.3773C169.559 41.2967 171.662 42.1175 173.962 42.8399L181.355 45.1055C184.641 46.0906 187.039 47.3054 188.551 48.7502C190.062 50.1949 190.818 52.0993 190.818 54.4634C190.818 57.1559 189.832 59.3558 187.861 61.0632ZM276.693 64.2154C278.993 64.2154 280.997 63.9855 282.706 63.5259C284.415 63.0662 285.63 62.5736 286.353 62.0483V49.5382L275.609 50.6218C272.586 50.9501 270.319 51.6397 268.807 52.6904C267.296 53.6754 266.54 55.2187 266.54 57.3201C266.54 59.4872 267.362 61.1946 269.005 62.4423C270.647 63.6244 273.21 64.2154 276.693 64.2154ZM276.496 23.336C282.607 23.336 287.47 24.6823 291.085 27.3747C294.699 30.0015 296.506 34.1715 296.506 39.8848V62.8363C296.506 64.3467 296.145 65.5288 295.422 66.3825C294.765 67.1705 293.845 67.9257 292.662 68.6481C290.953 69.6331 288.752 70.4868 286.057 71.2092C283.363 71.9316 280.242 72.2928 276.693 72.2928C270.319 72.2928 265.325 71.045 261.71 68.5496C258.162 66.0541 256.387 62.3766 256.387 57.5171C256.387 53.1829 257.767 49.8666 260.527 47.5681C263.353 45.2697 267.395 43.8578 272.652 43.3324L286.353 41.9534V39.7863C286.353 36.8968 285.4 34.7954 283.495 33.482C281.655 32.1686 279.059 31.5119 275.707 31.5119C273.079 31.5119 270.549 31.8731 268.117 32.5955C265.686 33.3178 263.517 34.1387 261.612 35.0581C260.954 34.5327 260.396 33.9089 259.936 33.1865C259.476 32.3985 259.246 31.5448 259.246 30.6254C259.246 29.509 259.509 28.5896 260.034 27.8673C260.626 27.1449 261.513 26.521 262.696 25.9957C264.536 25.0763 266.639 24.4196 269.005 24.0256C271.37 23.5659 273.867 23.336 276.496 23.336ZM307.405 71.2091C308.325 71.9314 309.738 72.2926 311.643 72.2926C312.629 72.2926 313.516 72.1941 314.305 71.9971C315.159 71.8658 315.849 71.7016 316.375 71.5046V11.7124C316.375 10.005 315.915 8.79008 314.995 8.06772C314.075 7.34535 312.662 6.98417 310.756 6.98417C309.771 6.98417 308.851 7.08267 307.996 7.27968C307.142 7.47669 306.485 7.64086 306.025 7.7722V67.5644C306.025 69.2718 306.485 70.4867 307.405 71.2091ZM333.416 72.2926C331.51 72.2926 330.097 71.9314 329.177 71.2091C328.257 70.4867 327.797 69.2718 327.797 67.5644V7.7722C328.257 7.64086 328.915 7.47669 329.769 7.27968C330.623 7.08267 331.543 6.98417 332.529 6.98417C334.435 6.98417 335.847 7.34535 336.767 8.06772C337.687 8.79008 338.147 10.005 338.147 11.7124V71.5046C337.622 71.7016 336.932 71.8658 336.077 71.9971C335.289 72.1941 334.402 72.2926 333.416 72.2926ZM393.372 48.4547C394.292 45.4995 395.146 42.5772 395.935 39.6878C396.723 42.5116 397.545 45.3682 398.399 48.2577C399.253 51.1471 400.108 53.9381 400.962 56.6305C401.816 59.2573 402.638 61.7199 403.426 64.0184C404.215 66.3168 404.905 68.2541 405.496 69.8301C406.088 71.4719 408.125 72.2928 411.608 72.2928C412.922 72.2928 414.105 72.1286 415.156 71.8002C416.208 71.5376 416.996 71.2092 417.522 70.8152C418.048 69.5675 418.705 67.7616 419.493 65.3974C420.282 63.0333 421.07 60.4394 421.859 57.6156C422.713 54.7918 423.535 51.8695 424.323 48.8487C425.178 45.7622 425.933 42.8728 426.591 40.1803C427.313 37.4222 427.872 35.0252 428.266 32.9895C428.661 30.9537 428.858 29.509 428.858 28.6553C428.858 27.2106 428.398 26.1598 427.478 25.5031C426.623 24.8464 425.473 24.5181 424.028 24.5181C423.239 24.5181 422.451 24.6494 421.662 24.9121C420.873 25.1091 420.15 25.3718 419.493 25.7002C418.508 32.0044 417.292 38.3087 415.846 44.613C414.4 50.9173 413.02 56.8932 411.706 62.5408H411.213C410.885 61.3588 410.392 59.717 409.735 57.6156C409.143 55.5142 408.42 53.0844 407.566 50.3263C406.778 47.5681 405.89 44.613 404.905 41.4609C403.919 38.2431 402.9 34.9924 401.849 31.7089C401.52 30.7239 400.83 29.9687 399.779 29.4433C398.793 28.918 397.545 28.6553 396.033 28.6553C393.93 28.6553 392.123 29.115 390.612 30.0343C389.495 33.3835 388.41 36.7655 387.359 40.1803C386.307 43.5295 385.322 46.6816 384.402 49.6367C383.547 52.5262 382.759 55.1201 382.036 57.4186C381.379 59.6513 380.886 61.3588 380.557 62.5408H380.163C379.9 61.3588 379.473 59.6185 378.882 57.3201L377.107 49.3412C376.45 46.3204 375.76 43.1026 375.037 39.6878C374.38 36.273 373.756 32.891 373.165 29.5418C372.573 26.1927 370.799 24.5181 367.842 24.5181C366.659 24.5181 365.574 24.7808 364.589 25.3061C363.669 25.7658 362.946 26.2912 362.42 26.8822C363.012 30.0343 363.8 33.7118 364.786 37.9147C365.772 42.1176 366.79 46.2876 367.842 50.4248C368.893 54.562 369.944 58.3708 370.996 61.8513C372.047 65.3318 372.967 67.8601 373.756 69.4361C374.15 70.4212 374.939 71.1435 376.122 71.6032C377.305 72.0629 378.652 72.2928 380.163 72.2928C381.543 72.2928 382.693 72.1614 383.613 71.8987C384.533 71.6361 385.322 71.2749 385.979 70.8152C386.636 69.0421 387.359 66.9735 388.147 64.6094C389.002 62.2453 389.856 59.6842 390.71 56.9261C391.63 54.1679 392.517 51.3441 393.372 48.4547ZM443.114 53.0843C444.034 56.8275 445.808 59.6185 448.437 61.4572C451.131 63.2303 454.548 64.1168 458.688 64.1168C461.448 64.1168 463.978 63.69 466.278 62.8363C468.578 61.9826 470.418 61.0632 471.798 60.0782C473.638 61.1289 474.558 62.6064 474.558 64.5109C474.558 65.6272 474.131 66.6779 473.277 67.663C472.422 68.5824 471.24 69.4032 469.728 70.1256C468.282 70.7823 466.541 71.3077 464.504 71.7017C462.532 72.0957 460.397 72.2927 458.097 72.2927C454.285 72.2927 450.802 71.7673 447.648 70.7166C444.56 69.6659 441.898 68.0898 439.664 65.9884C437.429 63.887 435.688 61.293 434.439 58.2066C433.257 55.1201 432.665 51.5411 432.665 47.4696C432.665 43.5294 433.257 40.0818 434.439 37.1266C435.622 34.1058 437.232 31.6104 439.269 29.6403C441.307 27.6045 443.705 26.0613 446.465 25.0106C449.225 23.9599 452.182 23.4345 455.337 23.4345C458.491 23.4345 461.35 23.9599 463.912 25.0106C466.541 25.9956 468.775 27.4075 470.615 29.2463C472.521 31.0194 473.967 33.1536 474.952 35.6491C476.004 38.1445 476.53 40.8698 476.53 43.8249C476.53 45.4667 476.135 46.6816 475.347 47.4696C474.558 48.192 473.408 48.6845 471.897 48.9472L443.114 53.0843ZM455.337 31.4134C451.722 31.4134 448.7 32.6283 446.268 35.058C443.902 37.4878 442.654 40.9683 442.522 45.4995L466.771 42.0518C466.508 39.0967 465.424 36.6013 463.518 34.5655C461.612 32.4641 458.885 31.4134 455.337 31.4134ZM520.122 32.8909C521.897 32.1686 523.835 31.8074 525.938 31.8074C528.435 31.8074 530.505 32.1357 532.148 32.7924C533.857 33.4491 535.401 34.2043 536.781 35.058C537.504 34.664 538.095 34.1058 538.555 33.3835C539.081 32.5954 539.344 31.7417 539.344 30.8223C539.344 29.8373 538.983 28.9179 538.26 28.0642C537.603 27.1448 536.65 26.3568 535.401 25.7001C534.153 24.9777 532.641 24.4196 530.867 24.0255C529.158 23.6315 527.22 23.4345 525.051 23.4345C521.765 23.4345 518.644 23.9599 515.687 25.0106C512.73 25.9956 510.134 27.506 507.9 29.5418C505.731 31.5775 503.99 34.1387 502.675 37.2251C501.427 40.3116 500.802 43.8906 500.802 47.9621C500.802 52.0336 501.394 55.6126 502.577 58.6991C503.825 61.7199 505.534 64.2482 507.702 66.2839C509.871 68.3197 512.434 69.8301 515.391 70.8151C518.414 71.8002 521.732 72.2927 525.347 72.2927C529.684 72.2927 533.167 71.6032 535.795 70.2241C538.49 68.845 539.837 67.1376 539.837 65.1019C539.837 64.0512 539.574 63.1646 539.048 62.4423C538.523 61.7199 537.833 61.096 536.978 60.5707C535.664 61.4901 534.12 62.2781 532.345 62.9348C530.571 63.5915 528.435 63.9198 525.938 63.9198C521.601 63.9198 518.085 62.5736 515.391 59.8811C512.697 57.123 511.35 53.15 511.35 47.9621C511.35 45.3353 511.711 43.0369 512.434 41.0668C513.222 39.031 514.241 37.3236 515.49 35.9446C516.804 34.5655 518.348 33.5476 520.122 32.8909ZM590.367 47.8636C590.367 51.6068 589.809 54.9888 588.692 58.0096C587.575 61.0304 585.997 63.5915 583.96 65.6929C581.989 67.7943 579.557 69.4361 576.666 70.6181C573.775 71.7345 570.555 72.2927 567.006 72.2927C563.457 72.2927 560.237 71.7345 557.346 70.6181C554.454 69.4361 551.99 67.7943 549.953 65.6929C547.982 63.5915 546.437 61.0304 545.32 58.0096C544.203 54.9888 543.644 51.6068 543.644 47.8636C543.644 44.1204 544.203 40.7385 545.32 37.7177C546.437 34.6968 548.014 32.1357 550.052 30.0343C552.089 27.9329 554.553 26.324 557.444 25.2076C560.336 24.0255 563.523 23.4345 567.006 23.4345C570.489 23.4345 573.676 24.0255 576.567 25.2076C579.459 26.324 581.923 27.9657 583.96 30.1328C585.997 32.2342 587.575 34.7953 588.692 37.8162C589.809 40.7713 590.367 44.1204 590.367 47.8636ZM567.006 31.7089C563.063 31.7089 559.942 33.1208 557.642 35.9446C555.342 38.7684 554.192 42.7414 554.192 47.8636C554.192 52.9858 555.309 56.9589 557.543 59.7826C559.777 62.5408 562.932 63.9198 567.006 63.9198C571.08 63.9198 574.235 62.5408 576.469 59.7826C578.703 56.9589 579.82 52.9858 579.82 47.8636C579.82 42.807 578.67 38.8669 576.37 36.0431C574.136 33.1536 571.015 31.7089 567.006 31.7089ZM643.19 28.4583H661.82C662.083 28.8523 662.313 29.4105 662.51 30.1328C662.773 30.7895 662.905 31.5776 662.905 32.4969C662.905 35.2551 661.656 36.6341 659.159 36.6341H643.486V71.5047C643.026 71.7017 642.369 71.8659 641.514 71.9972C640.726 72.1942 639.839 72.2927 638.853 72.2927C636.947 72.2927 635.534 71.9315 634.614 71.2092C633.694 70.4868 633.234 69.2719 633.234 67.5645V22.6465C633.234 19.6257 633.662 17.0317 634.516 14.8646C635.436 12.6975 636.717 10.9245 638.36 9.5454C640.003 8.16634 641.974 7.14846 644.274 6.49176C646.64 5.83506 649.236 5.50671 652.062 5.50671C656.136 5.50671 659.257 6.03207 661.426 7.08279C663.595 8.1335 664.679 9.61107 664.679 11.5155C664.679 12.4349 664.482 13.2557 664.087 13.9781C663.759 14.6348 663.332 15.2258 662.806 15.7512C661.557 15.2258 660.112 14.7661 658.469 14.3721C656.826 13.9781 655.15 13.7811 653.442 13.7811C649.762 13.7811 647.133 14.5035 645.556 15.9482C643.979 17.3929 643.19 19.757 643.19 23.0405V28.4583ZM681.402 61.4572C678.774 59.6185 676.999 56.8275 676.079 53.0843L704.862 48.9472C706.374 48.6845 707.524 48.192 708.312 47.4696C709.101 46.6816 709.495 45.4667 709.495 43.8249C709.495 40.8698 708.97 38.1445 707.918 35.6491C706.932 33.1536 705.487 31.0194 703.581 29.2463C701.741 27.4075 699.507 25.9956 696.878 25.0106C694.315 23.9599 691.457 23.4345 688.302 23.4345C685.148 23.4345 682.191 23.9599 679.431 25.0106C676.671 26.0613 674.272 27.6045 672.235 29.6403C670.198 31.6104 668.588 34.1058 667.405 37.1266C666.222 40.0818 665.631 43.5294 665.631 47.4696C665.631 51.5411 666.222 55.1201 667.405 58.2066C668.654 61.293 670.395 63.887 672.629 65.9884C674.864 68.0898 677.525 69.6659 680.614 70.7166C683.768 71.7673 687.251 72.2927 691.062 72.2927C693.362 72.2927 695.498 72.0957 697.469 71.7017C699.507 71.3077 701.248 70.7823 702.694 70.1256C704.205 69.4032 705.388 68.5824 706.242 67.663C707.097 66.6779 707.524 65.6272 707.524 64.5109C707.524 62.6064 706.604 61.1289 704.764 60.0782C703.384 61.0632 701.544 61.9826 699.244 62.8363C696.944 63.69 694.414 64.1168 691.654 64.1168C687.514 64.1168 684.097 63.2303 681.402 61.4572ZM679.234 35.058C681.665 32.6283 684.688 31.4134 688.302 31.4134C691.851 31.4134 694.578 32.4641 696.484 34.5655C698.39 36.6013 699.474 39.0967 699.737 42.0518L675.488 45.4995C675.619 40.9683 676.868 37.4878 679.234 35.058ZM723.751 53.0843C724.672 56.8275 726.446 59.6185 729.074 61.4572C731.769 63.2303 735.186 64.1168 739.326 64.1168C742.086 64.1168 744.616 63.69 746.916 62.8363C749.216 61.9826 751.056 61.0632 752.436 60.0782C754.276 61.1289 755.196 62.6064 755.196 64.5109C755.196 65.6272 754.769 66.6779 753.914 67.663C753.06 68.5824 751.877 69.4032 750.366 70.1256C748.92 70.7823 747.179 71.3077 745.142 71.7017C743.17 72.0957 741.034 72.2927 738.734 72.2927C734.923 72.2927 731.44 71.7673 728.286 70.7166C725.197 69.6659 722.536 68.0898 720.301 65.9884C718.067 63.887 716.326 61.293 715.077 58.2066C713.894 55.1201 713.303 51.5411 713.303 47.4696C713.303 43.5294 713.894 40.0818 715.077 37.1266C716.26 34.1058 717.87 31.6104 719.907 29.6403C721.944 27.6045 724.343 26.0613 727.103 25.0106C729.863 23.9599 732.82 23.4345 735.974 23.4345C739.129 23.4345 741.987 23.9599 744.55 25.0106C747.179 25.9956 749.413 27.4075 751.253 29.2463C753.159 31.0194 754.604 33.1536 755.59 35.6491C756.642 38.1445 757.167 40.8698 757.167 43.8249C757.167 45.4667 756.773 46.6816 755.984 47.4696C755.196 48.192 754.046 48.6845 752.534 48.9472L723.751 53.0843ZM735.974 31.4134C732.36 31.4134 729.337 32.6283 726.906 35.058C724.54 37.4878 723.291 40.9683 723.16 45.4995L747.409 42.0518C747.146 39.0967 746.062 36.6013 744.156 34.5655C742.25 32.4641 739.523 31.4134 735.974 31.4134ZM768.368 48.7501C768.959 49.6695 769.616 50.4247 770.339 51.0157L780.098 48.7501C787.064 47.1084 792.288 44.613 795.771 41.2638C799.254 37.849 800.995 33.3506 800.995 27.7687C800.995 25.0762 800.469 22.5808 799.418 20.2824C798.366 17.9839 796.855 16.0138 794.884 14.3721C792.978 12.7303 790.645 11.4498 787.885 10.5304C785.125 9.61104 782.036 9.15135 778.619 9.15135C776.056 9.15135 773.691 9.34836 771.522 9.74238C769.354 10.1364 767.481 10.6946 765.903 11.417C764.392 12.0737 763.176 12.8945 762.256 13.8796C761.402 14.8646 760.975 15.9482 760.975 17.1302C760.975 18.2466 761.205 19.2316 761.665 20.0853C762.191 20.8734 762.881 21.5958 763.735 22.2524C765.246 21.0704 767.283 20.0853 769.846 19.2973C772.475 18.5093 775.104 18.1153 777.732 18.1153C782.004 18.1153 785.125 19.1003 787.096 21.0704C789.134 22.9748 790.152 25.2404 790.152 27.8672C790.152 30.8223 789.199 33.2193 787.294 35.058C785.388 36.8968 782.628 38.2758 779.014 39.1952L771.916 40.9683C769.025 41.6907 767.579 43.2011 767.579 45.4995C767.579 46.6815 767.842 47.7651 768.368 48.7501ZM770.438 60.9647C769.255 62.2124 768.664 63.7885 768.664 65.6929C768.664 67.5973 769.255 69.1734 770.438 70.4211C771.621 71.6688 773.231 72.2927 775.268 72.2927C777.305 72.2927 778.915 71.6688 780.098 70.4211C781.281 69.1734 781.872 67.5973 781.872 65.6929C781.872 63.7885 781.281 62.2124 780.098 60.9647C778.915 59.717 777.305 59.0931 775.268 59.0931C773.231 59.0931 771.621 59.717 770.438 60.9647Z" fill="#71230B"/>
</svg>
