<svg width="14" height="7" viewBox="0 0 14 7" fill="none" xmlns="http://www.w3.org/2000/svg">
<path fill-rule="evenodd" clip-rule="evenodd" d="M1.60004 3.50008C1.60004 2.36008 2.52671 1.43341 3.66671 1.43341H6.33337V0.166748H3.66671C1.82671 0.166748 0.333374 1.66008 0.333374 3.50008C0.333374 5.34008 1.82671 6.83341 3.66671 6.83341H6.33337V5.56675H3.66671C2.52671 5.56675 1.60004 4.64008 1.60004 3.50008ZM4.33337 4.16675H9.66671V2.83342H4.33337V4.16675ZM10.3334 0.166748H7.66671V1.43341H10.3334C11.4734 1.43341 12.4 2.36008 12.4 3.50008C12.4 4.64008 11.4734 5.56675 10.3334 5.56675H7.66671V6.83341H10.3334C12.1734 6.83341 13.6667 5.34008 13.6667 3.50008C13.6667 1.66008 12.1734 0.166748 10.3334 0.166748Z" fill="#2C303D"/>
</svg>
