<svg width="63" height="40" viewBox="0 0 63 40" fill="none" xmlns="http://www.w3.org/2000/svg">
<path fill-rule="evenodd" clip-rule="evenodd" d="M4.56176 0C2.30698 0 0.974609 0.995851 0.974609 2.66667C0.974609 4.33748 0.974609 14 2.30698 21.3333C3.63935 28.6667 11.6336 40 24.9573 40C33.6949 40 40.1404 35.1259 43.9182 29.7023C44.5688 30.0685 45.2642 30.3804 46.0022 30.6302C52.8256 32.9404 59.9744 28.8262 62.2621 22.0595C64.5498 15.2929 61.3655 7.68023 54.5421 5.37007C52.6583 4.73227 50.7497 4.58415 48.9254 4.84634C48.9399 3.80151 48.9399 3.03738 48.9399 2.66667C48.9399 0.995851 47.6076 0 45.3528 0H4.56176ZM46.9708 23.7527C47.2552 22.9141 47.4679 22.1017 47.6076 21.3333C48.1589 18.2988 48.4821 14.8655 48.6715 11.7646C49.8929 11.321 51.208 11.2791 52.4072 11.6851C55.3423 12.6789 57.2013 16.2266 55.9516 19.923C54.7019 23.6194 51.0724 25.3089 48.1372 24.3152C47.7253 24.1757 47.3347 23.986 46.9708 23.7527Z" fill="#71230B"/>
</svg>
